<svg width="312" height="50" viewBox="0 0 312 50" fill="none" xmlns="http://www.w3.org/2000/svg">
<mask id="mask0_425_305" style="mask-type:luminance" maskUnits="userSpaceOnUse" x="0" y="0" width="312" height="50">
<path d="M0.905273 0.721313H311.885V49.0563H0.905273V0.721313Z" fill="white"/>
</mask>
<g mask="url(#mask0_425_305)">
<path fill-rule="evenodd" clip-rule="evenodd" d="M27.0977 8.7301H27.6366V1.84085H0.904297V2.30206C3.98735 4.8061 4.4097 5.53801 4.4097 8.27265V41.6248C4.4097 44.3594 3.98735 45.0888 0.904297 47.5941V48.0578H14.7705V47.5941C11.6499 45.248 11.1109 44.3594 11.1109 41.7413V25.2169H14.1138C18.0441 25.2169 18.7384 25.4864 22.0859 29.7613H22.5496V18.9029H22.0859C18.7371 23.1741 18.0441 23.4473 14.1138 23.4473H11.1109V3.53152H15.6942C17.5452 3.53152 19.1219 4.14688 27.0989 8.73135L27.0977 8.7301ZM37.6452 28.3338H28.3685L32.7637 14.9012C32.9668 15.3825 33.1711 15.9164 33.3904 16.548L37.6452 28.3338ZM44.9455 32.2641L36.9008 10.1551H29.618V10.5812C30.6419 11.5337 31.2999 12.2606 31.8213 13.0627L25.8056 31.3379C24.729 34.6127 24.0347 35.6529 21.2975 38.1933V38.6595H29.7346V38.1946C27.4235 36.7708 26.654 35.8484 26.654 34.4974C26.654 33.8457 26.847 32.9609 27.3483 31.457L27.8772 29.8377H38.1866L39.1304 32.4533C39.7106 34.1139 39.8247 34.807 39.8247 35.4236C39.8247 36.3836 39.1692 37.1932 37.3996 38.1933V38.6595H49.1829V38.1946C46.4081 35.9224 45.9858 35.1566 44.9455 32.2641ZM62.6505 8.73135H63.1919V2.0702C60.6102 1.60649 57.7214 1.22174 55.0645 1.22174C47.3192 1.22174 43.5093 6.38522 43.5093 11.8909C43.5093 18.245 47.6313 22.0574 52.9063 26.4514C58.605 31.2264 61.9562 34.1139 61.9562 39.6195C61.9562 44.1652 58.9546 46.9386 54.9504 46.9386C51.445 46.9386 48.6715 45.5488 41.3098 39.7724H40.6631L43.3539 47.2858C46.5898 48.1965 49.9345 48.6628 53.2961 48.6719C62.1141 48.6719 67.2363 43.3204 67.2363 35.886C67.2363 29.0306 63.2295 25.5265 57.5271 20.9044C52.2897 16.6633 48.7079 13.2394 48.7079 8.309C48.7079 5.1119 50.8272 2.91741 54.102 2.91741C56.3741 2.91741 57.9545 3.80223 62.6505 8.73135ZM96.5841 8.73135H97.1205V1.83709H65.6183V8.7301H66.1547C73.5891 4.03408 75.093 3.41371 76.825 3.41371H78.0207V41.7388C78.0207 44.3569 77.4792 45.2455 74.3586 47.5916V48.0553H88.379V47.5916C85.2583 45.2455 84.7181 44.3569 84.7181 41.7388V3.41622H85.915C87.6445 3.41622 89.1485 4.03659 96.5841 8.7326V8.73135ZM136.762 7.50189H137.305V1.56889C134.185 1.10518 130.178 0.72168 126.521 0.72168C110.15 0.72168 100.443 9.85178 100.443 24.9851C100.443 39.8539 109.725 49.0579 125.901 49.0579C130.099 49.0579 133.874 48.4426 136.879 47.6317L138.07 41.0483H137.536C131.488 46.1704 128.791 47.3635 124.402 47.3635C112.305 47.3635 108.261 38.2334 108.261 24.7169C108.261 10.9659 112.305 2.57026 123.745 2.57026C127.401 2.57026 129.988 3.41496 136.762 7.50189ZM135.201 24.7169C135.201 32.3443 134.55 37.3862 129.039 37.3862C123.493 37.3862 122.875 32.3443 122.875 24.7156C122.875 17.0894 123.493 12.0438 129.039 12.0438C134.586 12.0438 135.201 17.0894 135.201 24.7169ZM141.748 24.7169C141.748 16.6633 136.973 10.6175 129.04 10.6175C121.107 10.6175 116.331 16.7084 116.331 24.7169C116.331 32.6877 121.106 38.8099 129.039 38.8099C136.975 38.8099 141.748 32.6877 141.748 24.7169ZM170.079 47.9751L183.789 48.0553V47.5916C180.709 45.0876 180.288 44.3582 180.288 41.6235V8.2714C180.288 5.53676 180.709 4.80485 183.791 2.3384V1.8772L174.085 1.79949L163.308 35.9387L152.286 1.83835H142.466V2.3008C144.318 3.91001 145.452 4.95774 146.276 6.03431V38.3487C146.276 42.0835 145.815 43.5874 142.346 47.5929V48.0566H153.327V47.5929C148.703 43.7829 148.051 42.2414 148.051 38.3487V9.59736C148.126 9.81794 148.201 10.026 148.277 10.2716L160.646 48.4413H161.183L173.581 9.15621V41.5847C173.581 44.3206 173.159 45.05 170.079 47.5164V47.9751ZM209.77 15.9765C209.77 24.6404 207.729 28.2599 201.103 28.2599H197.29V3.53152H199.984C207.303 3.53152 209.77 6.65217 209.77 15.9765ZM216.931 15.6657C216.931 5.26605 209.652 1.8396 199.794 1.8396H187.085V2.3008C190.163 4.80485 190.586 5.53676 190.586 8.2714V41.6235C190.586 44.3582 190.163 45.0876 187.085 47.5929V48.0566H200.949V47.5929C197.827 45.2467 197.29 44.3582 197.29 41.7401V29.9543H200.907C209.614 29.9543 216.931 26.2546 216.931 15.6657ZM233.848 31.1875H220.767L227.21 7.89291C227.347 8.2902 227.481 8.71506 227.618 9.19381L233.846 31.1888L233.848 31.1875ZM311.886 2.29955V1.84085H301.452V2.30206C304.263 4.8061 305.109 5.99922 305.109 7.8102C305.109 8.77271 304.878 9.54222 304.105 11.3156L298.114 25.3259L290.281 7.96184C289.663 6.61708 289.468 5.88266 289.468 5.19211C289.468 3.96014 290.165 3.26457 292.05 2.30206V1.8396H268.943V2.3008C274.104 6.11577 274.799 7.61469 274.799 11.8157V38.3976L255.504 1.83835H245.91V2.29955C247.912 4.01654 249.072 5.08808 250.071 6.41405V38.4603C250.071 41.9431 249.684 43.4583 246.922 47.5916C244.794 44.9246 244.33 43.6438 243.252 39.8514L232.355 1.8396H222.997V2.3008C224.468 3.59168 225.397 4.48651 226.092 5.53425L217.027 38.1595C215.718 42.8968 214.675 44.3206 211.21 47.5929V48.0566H222.381V47.5929C219.183 45.1665 218.184 43.9346 218.184 41.8153C218.184 40.9693 218.377 39.7724 218.84 38.1595L220.287 32.9208H234.333L236.285 39.8138C236.899 41.9719 237.131 42.8968 237.131 43.7428C237.131 44.9359 236.636 45.7455 234.282 47.5929V48.0566H257.7V47.5929C252.534 43.7829 251.845 42.279 251.845 38.4628V9.28906C251.882 9.36676 251.92 9.42441 251.957 9.50462L272.333 48.0553H276.573V11.8157C276.573 7.98064 276.954 6.45541 279.617 2.32462C281.352 4.42385 282.452 6.18846 283.886 9.38932L292.205 27.7711V41.7413C292.205 44.3582 291.664 45.2467 288.545 47.5929V48.0566H302.568V47.5929C299.445 45.2467 298.91 44.3582 298.91 41.7401V27.563L305.838 11.4296C307.306 8.00195 308.42 6.38648 311.888 2.30206L311.886 2.29955Z" fill="white"/>
</g>
</svg>
