<svg width="317" height="74" viewBox="0 0 317 74" fill="none" xmlns="http://www.w3.org/2000/svg">
<g clip-path="url(#clip0_425_290)">
<path fill-rule="evenodd" clip-rule="evenodd" d="M73.606 44.0806C67.8745 44.7334 65.997 45.7108 65.997 49.812C65.997 53.2137 68.0598 54.8151 70.6383 54.8151C73.4001 54.8151 75.1918 53.7993 76.5131 52.3732V43.7539L73.606 44.0806ZM63.2845 24.6447C66.3431 23.5521 69.2759 23.002 72.6146 23.002C78.1621 23.002 81.9968 24.4394 83.8593 27.4855C85.2893 29.3273 85.8489 31.7745 85.815 36.7023C85.815 36.7023 85.815 50.4549 85.815 50.5538C85.815 52.7886 87.5643 53.9397 89.3256 54.3007L85.7174 60.9422C84.5565 60.842 83.3023 60.578 82.1333 60.1112C80.2425 59.3557 78.5816 58.0707 77.925 56.1031C77.3706 57.0907 76.6557 57.8167 75.9799 58.4914C74.1293 60.3409 71.3304 61.1806 68.7269 61.1806C61.5352 61.1806 56.6387 57.7065 56.6387 50.192C56.6387 42.479 61.4626 38.791 72.544 38.2457C72.8788 38.2457 76.1463 37.9547 76.5131 37.9891V35.8074C76.5131 31.469 75.7232 30.4951 71.5038 30.4951C68.0703 30.4951 65.1351 31.8177 60.7191 33.7816L58.0594 27.0443C59.8925 26.0993 61.1015 25.4221 63.2845 24.6447Z" fill="white"/>
<path fill-rule="evenodd" clip-rule="evenodd" d="M92.2256 60.2356H101.561V5.51562H92.2256V60.2356Z" fill="white"/>
<path fill-rule="evenodd" clip-rule="evenodd" d="M107.337 60.2356H116.671V5.51562H107.337V60.2356Z" fill="white"/>
<path fill-rule="evenodd" clip-rule="evenodd" d="M0 13.0715L11.9087 60.2344H22.6014L29.3673 26.7363L36.0815 60.2344H46.4682L58.5157 13.0715H48.8395L41.7773 48.0128L34.7653 13.0715H24.5276L17.5294 48.2806L10.5794 13.0715H0Z" fill="white"/>
<path fill-rule="evenodd" clip-rule="evenodd" d="M174.19 44.0806C168.458 44.7334 166.577 45.7108 166.577 49.812C166.577 53.2137 168.642 54.8151 171.22 54.8151C173.982 54.8151 175.773 53.7993 177.097 52.3732V43.7539L174.19 44.0806ZM163.866 24.6447C166.926 23.5521 169.858 23.002 173.196 23.002C178.745 23.002 182.579 24.4394 184.441 27.4855C185.869 29.3273 186.43 31.7745 186.397 36.7023C186.397 36.7023 186.397 50.4549 186.397 50.5538C186.397 52.7886 188.148 53.9397 189.909 54.3007L186.302 60.9422C185.091 60.8372 183.783 60.556 182.579 60.0547C180.746 59.2918 179.149 58.0246 178.509 56.1031C177.954 57.0907 177.238 57.8167 176.564 58.4914C174.711 60.3409 171.912 61.1806 169.309 61.1806C162.119 61.1806 157.22 57.7065 157.22 50.192C157.22 42.479 162.045 38.791 173.126 38.2457C173.461 38.2457 176.728 37.9547 177.097 37.9891V35.8074C177.097 31.469 176.308 30.4951 172.088 30.4951C168.652 30.4951 165.717 31.8177 161.3 33.7816L158.642 27.0443C160.477 26.0993 161.685 25.4221 163.866 24.6447Z" fill="white"/>
<path fill-rule="evenodd" clip-rule="evenodd" d="M251.161 38.5868V37.949C251.161 32.9447 249.82 29.4912 245.099 29.4912C241.336 29.4912 238.886 31.501 238.704 38.5187L238.708 38.5868H251.161ZM260.498 57.2729C257.118 59.5172 252.538 61.2171 247.194 61.2171C235.931 61.2171 229.059 54.2075 229.059 42.1787C229.059 35.8662 230.559 31.3764 233.554 28.0219C236.587 24.6203 240.654 22.9763 245.726 22.9763C250.528 22.9763 254.442 24.4501 256.886 27.1249C259.869 30.3469 261.218 35.0739 261.218 41.8018C261.218 42.1724 261.218 44.5813 261.218 44.886H239.019C239.019 51.4356 243.131 53.721 247.894 53.721C251.594 53.721 255.067 52.6748 258.346 50.906L260.498 57.2729Z" fill="white"/>
<path fill-rule="evenodd" clip-rule="evenodd" d="M283.117 23.0139C284.845 23.0139 285.916 23.2279 287.132 23.7123L285.192 31.9974C284.133 31.6175 282.925 31.369 281.253 31.369C278.638 31.369 276.381 32.2783 274.334 33.9519V60.2357H264.854V33.458C264.854 31.1218 264.584 25.4077 264.213 24.4258L271.582 23.3418C271.989 24.0521 273.752 28.3937 273.82 29.375C275.252 27.1188 277.194 24.9684 279.245 23.9101C280.358 23.3186 282.135 23.0139 283.117 23.0139Z" fill="white"/>
<path fill-rule="evenodd" clip-rule="evenodd" d="M138.134 54.5047C140.777 54.5047 142.638 54.1623 143.799 51.8811C144.806 49.9048 145.284 46.4049 145.284 41.2492C145.284 37.3364 144.802 34.6264 143.844 32.953C142.852 31.178 141.177 30.407 138.824 30.407C136.072 30.407 133.897 31.3907 131.814 33.0361V52.2887C133.259 53.3419 135.477 54.5047 138.134 54.5047ZM129.514 23.3768C130.163 24.3269 131.296 27.5819 131.33 28.1232C133.509 24.5358 137.796 23.0106 141.156 23.0106C144.065 23.0106 146.74 23.8243 148.823 25.2656C152.836 28.0318 155.314 33.1938 155.314 41.4263C155.314 49.0161 153.646 54.1623 149.846 57.6309C147.347 59.8934 144.012 61.1562 140.134 61.1562C136.455 61.1562 133.615 59.9315 131.711 58.5233C131.722 59.1636 131.779 61.3859 131.779 61.8941V72.9529H122.617V33.458C122.617 31.1217 122.496 25.4076 122.123 24.4257L129.514 23.3768Z" fill="white"/>
<path fill-rule="evenodd" clip-rule="evenodd" d="M208.63 54.5047C211.276 54.5047 213.135 54.1623 214.296 51.8811C215.305 49.9048 215.779 46.4049 215.779 41.2492C215.779 37.3364 215.301 34.6264 214.341 32.953C213.349 31.178 211.673 30.407 209.319 30.407C206.569 30.407 204.393 31.3907 202.31 33.0361V52.2887C203.756 53.3419 205.974 54.5047 208.63 54.5047ZM200.011 23.3768C200.659 24.3269 201.795 27.5819 201.826 28.1232C204.008 24.5358 208.293 23.0106 211.655 23.0106C214.567 23.0106 217.235 23.8243 219.32 25.2656C223.335 28.0318 225.811 33.1938 225.811 41.4263C225.811 49.0161 224.142 54.1623 220.344 57.6309C217.844 59.8934 214.51 61.1562 210.632 61.1562C206.952 61.1562 204.115 59.9315 202.207 58.5233C202.217 59.1636 202.277 61.3859 202.277 61.8941V72.9529H193.114V33.458C193.114 31.1217 192.993 25.4076 192.619 24.4257L200.011 23.3768Z" fill="white"/>
<path fill-rule="evenodd" clip-rule="evenodd" d="M297.904 0.860596V10.192L288.92 7.2718L286.863 13.601L295.807 16.5081L290.308 24.0785L295.692 27.9893L301.139 20.4917L306.586 27.9893L311.972 24.0785L306.471 16.5081L315.415 13.601L313.358 7.2718L304.374 10.192V0.860596H297.904Z" fill="white"/>
</g>
<defs>
<clipPath id="clip0_425_290">
<rect width="316.611" height="72.5987" fill="white" transform="translate(0 0.86084)"/>
</clipPath>
</defs>
</svg>
