<svg width="349" height="82" viewBox="0 0 349 82" fill="none" xmlns="http://www.w3.org/2000/svg">
<path fill-rule="evenodd" clip-rule="evenodd" d="M0.634766 32.3836V63.9395H8.46846H16.303L16.3396 46.3091L16.3761 28.6787L17.2467 30.0088C17.7254 30.74 18.1868 31.4103 18.2721 31.4982C18.3574 31.5862 18.7465 32.1476 19.1365 32.7466C19.5274 33.3446 19.8834 33.8669 19.9287 33.9069C20.0114 33.9801 20.8645 35.2336 22.4462 37.6066C22.925 38.3248 23.3576 38.9454 23.4072 38.9846C23.4569 39.0247 23.8164 39.547 24.2072 40.1459C24.5972 40.7439 25.0029 41.3202 25.1082 41.4255C25.2135 41.5308 25.2988 41.6727 25.2988 41.7415C25.2988 41.8103 25.3807 41.9522 25.4808 42.0575C25.6514 42.2386 26.2747 43.1456 27.7485 45.3576C28.0984 45.8825 28.4248 46.3448 28.4736 46.3839C28.5232 46.424 28.8819 46.9419 29.271 47.5339C29.6601 48.1267 30.037 48.6821 30.1084 48.7674C30.1807 48.8527 30.9676 50 31.8572 51.3171C32.7469 52.6333 33.5121 53.7441 33.5582 53.7832C33.6044 53.8233 34.0979 54.5415 34.6568 55.3798C35.7632 57.0407 38.5732 61.1669 38.7551 61.4002C38.8178 61.4803 39.227 62.0818 39.6648 62.7373L40.4605 63.9299L48.4761 63.9342L56.4926 63.9395V32.3836V0.827637H48.5849H40.6781V18.4833V36.1398L39.9164 34.9542C38.5297 32.7962 36.8635 30.2395 35.1695 27.668C34.2494 26.2717 33.4642 25.0643 33.4242 24.9842C33.3406 24.8171 32.8279 24.0389 32.6599 23.8238C32.5249 23.6497 29.3128 18.7427 27.1852 15.46C25.0212 12.1207 24.8105 11.7986 24.6817 11.6367C24.5476 11.4661 21.4016 6.66178 19.1748 3.22589L17.6201 0.827637H9.12743H0.634766V32.3836ZM58.9587 19.6454C58.9587 19.7821 59.9372 22.3657 60.2802 23.1327C60.4308 23.4713 60.5544 23.8151 60.5544 23.8961C60.5544 23.9779 60.6145 24.1581 60.6876 24.2974C60.8521 24.6099 61.1785 25.4012 61.4179 26.0724C61.6591 26.7453 61.774 27.0299 62.1361 27.8482C62.3041 28.226 62.4408 28.6308 62.4408 28.7466C62.4408 28.8623 62.4974 28.9921 62.567 29.0347C62.6366 29.0782 62.7315 29.3054 62.7794 29.5405C62.8264 29.7755 62.9901 30.2508 63.1441 30.5955C63.2974 30.9402 63.5716 31.6149 63.7535 32.0937C63.9354 32.5725 64.1287 33.0295 64.1835 33.1087C64.2384 33.1888 64.3959 33.6084 64.5335 34.0419C64.6719 34.4745 64.9165 35.1274 65.0784 35.4921C65.4562 36.3487 65.4797 36.4062 66.2928 38.5494C66.6706 39.547 67.0928 40.6246 67.2303 40.9433C67.3678 41.2627 68.6719 44.5924 70.1282 48.3426C71.5846 52.0936 72.8607 55.358 72.9643 55.5974C73.0688 55.8368 73.2629 56.326 73.3961 56.6855C73.5302 57.0442 73.6921 57.469 73.7565 57.6283C73.8218 57.7876 74.0516 58.3752 74.2684 58.934C74.8707 60.4888 74.8742 60.4966 75.1093 61.0381C75.2311 61.3166 75.474 61.9695 75.6499 62.4883C75.8257 63.0071 76.0268 63.4938 76.0964 63.5695C76.7336 64.2589 75.1885 66.8635 73.8296 67.3902C72.6858 67.8341 68.8329 67.8063 66.4303 67.3362C66.1909 67.2892 65.3422 67.1281 64.5448 66.9775C63.7465 66.8278 62.8656 66.638 62.587 66.5553C61.9106 66.356 61.9063 66.3569 61.8166 66.7321C61.7235 67.1238 61.021 69.7658 60.8329 70.4317C60.7598 70.6911 60.6301 71.1481 60.5448 71.4476C60.4595 71.747 60.3333 72.2197 60.2645 72.4992C60.1957 72.7786 60.0747 73.2356 59.9973 73.5151C59.9198 73.7945 59.7248 74.5126 59.5637 75.1107C59.4036 75.7096 59.1642 76.5906 59.0327 77.0693C58.2737 79.8393 58.1535 79.4737 59.9746 79.9368C62.5148 80.5836 63.266 80.7037 67.837 81.1982C69.6843 81.3975 75.9867 81.3932 76.9748 81.1921C80.4167 80.4904 81.7364 79.9707 83.9144 78.4587C84.6135 77.9738 86.6165 76.0047 86.956 75.4685C87.1092 75.2265 87.393 74.8443 87.5863 74.6197C87.7795 74.3951 88.0842 73.9407 88.2644 73.6091C89.0548 72.1536 89.8165 70.6467 89.9984 70.1784C90.2935 69.4167 90.5199 68.8744 90.8602 68.1118C91.0291 67.734 91.1675 67.3579 91.1675 67.2761C91.1675 67.1943 91.2276 67.0141 91.3007 66.8757C91.5262 66.4474 91.8456 65.65 92.1851 64.6646C92.3636 64.1458 92.5595 63.6565 92.6195 63.5765C92.6805 63.4972 92.9016 62.9419 93.1122 62.3438C93.4892 61.2722 93.6885 60.7743 93.9409 60.2781C94.0115 60.1397 94.0689 59.9595 94.0689 59.8777C94.0689 59.7958 94.1934 59.452 94.3449 59.1142C94.4972 58.7756 94.8001 58.0096 95.0195 57.4107C95.2389 56.8126 95.5314 56.0614 95.6698 55.7419C95.8082 55.4233 96.0693 54.7704 96.2504 54.2916C96.4306 53.8128 96.6604 53.2253 96.7614 52.9859C96.8615 52.7465 98.3283 48.992 100.021 44.6429C101.713 40.2939 103.149 36.6055 103.211 36.4462C103.274 36.286 103.424 35.9274 103.545 35.648C103.667 35.3685 103.876 34.8462 104.012 34.4876C104.147 34.128 104.338 33.6388 104.438 33.3994C104.537 33.16 104.764 32.5725 104.943 32.0937C105.357 30.9881 105.437 30.7905 105.8 29.9696C105.964 29.5988 106.143 29.1096 106.199 28.8815C106.254 28.6534 106.486 28.0563 106.713 27.5557C106.941 27.0552 107.127 26.586 107.127 26.5137C107.127 26.3762 107.781 24.7344 108.01 24.2974C108.083 24.1581 108.142 23.9779 108.142 23.8961C108.142 23.8151 108.279 23.4382 108.447 23.0604C108.973 21.8739 109.738 19.8508 109.738 19.648C109.738 19.5897 106.034 19.5584 101.506 19.5784L93.2733 19.6158L92.4576 22.0097C92.0093 23.3268 91.5949 24.5342 91.5366 24.6944C91.4783 24.8537 91.3756 25.1479 91.3094 25.3472C91.2424 25.5466 90.9951 26.2647 90.7592 26.9429C90.5233 27.621 90.2221 28.535 90.0898 28.9738C89.9584 29.4125 89.7921 29.9026 89.7216 30.0619C89.5205 30.5146 88.8354 32.4723 88.6813 33.0364C88.6047 33.3159 88.482 33.6745 88.4089 33.8347C88.3358 33.994 87.8822 35.2998 87.4017 36.7361C86.1508 40.4749 84.9521 43.943 84.8877 44.0074C84.8572 44.0379 84.6788 43.5887 84.4916 43.0107C84.3036 42.4327 84.1155 41.8938 84.072 41.8138C83.9841 41.6518 83.2076 39.4051 81.8148 35.285C81.3021 33.7694 80.4507 31.2885 79.9223 29.772C79.3939 28.2556 78.8951 26.7871 78.8141 26.5076C78.6104 25.8069 78.3519 25.0495 77.8209 23.6062C77.5719 22.9272 77.1593 21.7364 76.9051 20.9581L76.442 19.5436H67.7004C62.8926 19.5436 58.9587 19.5897 58.9587 19.6454Z" fill="white"/>
<path fill-rule="evenodd" clip-rule="evenodd" d="M99.0012 1.11752C98.9159 1.27769 98.8776 1.40827 98.9159 1.40827C98.9551 1.40827 98.8898 1.63895 98.7714 1.92187C98.653 2.20478 98.5956 2.49901 98.6426 2.57475C98.6896 2.65135 98.6591 2.71403 98.5747 2.71403C98.4902 2.71403 98.4206 2.86637 98.4206 3.05265C98.4206 3.23807 98.3718 3.44003 98.3118 3.49923C98.2526 3.55929 98.1977 3.65156 98.1916 3.70554C98.1847 3.75864 98.1316 3.9693 98.0741 4.173C98.0158 4.37757 97.9496 4.63872 97.9261 4.75363C97.9035 4.86854 97.8426 5.06005 97.7921 5.18018C97.5205 5.82261 97.2663 6.68528 97.3298 6.74883C97.3699 6.78888 97.3464 6.89334 97.2776 6.98039C97.2088 7.06744 97.0739 7.39997 96.9782 7.71945C96.8815 8.03805 96.7657 8.39757 96.7196 8.51683C96.6735 8.63696 96.6082 8.86504 96.5742 9.02521C96.4776 9.477 96.4463 9.57537 96.2556 10.0402C96.1581 10.2796 96.0511 10.6391 96.018 10.8385C95.9562 11.2119 95.359 12.9738 95.2067 13.2324C95.1597 13.3125 95.1396 13.4918 95.1623 13.6311C95.1849 13.7712 95.1327 13.8853 95.0465 13.8853C94.9612 13.8853 94.9281 13.9236 94.9751 13.9697C95.0213 14.0158 94.9655 14.2779 94.8515 14.5521L94.6426 15.05L103.75 15.0117L112.857 14.9734V39.4199V63.8672L121.453 63.9046L130.05 63.9421V39.4947V15.0483L139.153 15.0108L148.257 14.9734L148.295 7.90051L148.333 0.827637H123.745C99.305 0.827637 99.1553 0.829378 99.0012 1.11752ZM183.911 32.347L183.948 63.8672L192.472 63.9046L200.996 63.9421V58.1488C200.996 52.2572 201.018 51.8977 201.374 51.8977C201.485 51.8977 201.576 51.7994 201.576 51.6801C201.576 51.56 201.645 51.4625 201.73 51.4625C201.814 51.4625 201.837 51.3867 201.779 51.2945C201.716 51.1909 201.74 51.1665 201.843 51.23C201.943 51.2919 202.078 51.1839 202.179 50.9628C202.272 50.7582 202.404 50.592 202.473 50.592C202.542 50.592 202.662 50.4248 202.74 50.2203C202.818 50.0157 202.947 49.8895 203.027 49.9382C203.107 49.9878 203.172 49.9269 203.172 49.8033C203.172 49.6788 203.466 49.2801 203.825 48.9154C204.184 48.5515 204.478 48.192 204.478 48.1171C204.478 47.8394 204.883 47.9909 204.985 48.3069C205.044 48.4862 205.106 48.6655 205.124 48.7056C205.495 49.5369 205.605 49.7084 205.707 49.6144C205.775 49.5534 205.789 49.6161 205.74 49.7537C205.689 49.8973 205.736 50.0514 205.852 50.1167C205.962 50.1785 206.059 50.2943 206.065 50.3743C206.091 50.6921 206.27 51.1064 206.442 51.244C206.541 51.3241 206.696 51.6235 206.787 51.9099C206.877 52.1963 207.076 52.5645 207.229 52.7291C207.382 52.8927 207.477 53.0572 207.439 53.0947C207.403 53.1312 207.472 53.2444 207.593 53.3454C207.715 53.4464 207.815 53.5978 207.815 53.6831C207.815 53.9478 208.414 55.089 208.553 55.089C208.626 55.089 208.671 55.1386 208.655 55.1978C208.612 55.3493 209.146 56.4461 209.321 56.5645C209.399 56.6185 209.478 56.7682 209.497 56.8988C209.516 57.0294 209.636 57.2931 209.762 57.4855C209.887 57.6779 209.991 57.9356 209.991 58.0583C209.991 58.1811 210.053 58.2812 210.129 58.2812C210.205 58.2812 210.374 58.5258 210.504 58.8252C210.634 59.1247 210.8 59.4668 210.874 59.5869C210.948 59.7062 211.069 59.9447 211.143 60.1171C211.217 60.2886 211.349 60.4731 211.435 60.5262C211.521 60.5793 211.549 60.6907 211.498 60.7734C211.446 60.857 211.464 60.9667 211.535 61.018C211.607 61.0685 211.886 61.5342 212.154 62.0531C212.422 62.5719 212.769 63.2082 212.924 63.4676L213.207 63.9395H221.827C231.129 63.9395 230.781 63.9699 230.178 63.1969C230.029 63.0072 229.861 62.7042 229.805 62.5249C229.749 62.3456 229.638 62.1984 229.559 62.1984C229.48 62.1984 229.455 62.1332 229.505 62.0531C229.554 61.9739 229.522 61.9086 229.432 61.9086C229.343 61.9086 229.31 61.8433 229.36 61.7632C229.409 61.6831 229.376 61.6178 229.287 61.6178C229.198 61.6178 229.16 61.5604 229.205 61.4899C229.248 61.4185 229.187 61.2809 229.07 61.1826C228.951 61.0851 228.89 60.9467 228.935 60.8761C228.978 60.8056 228.952 60.7473 228.877 60.7473C228.803 60.7473 228.704 60.6333 228.66 60.494C228.615 60.3538 228.349 59.8315 228.069 59.3327C227.788 58.8339 227.599 58.4265 227.647 58.4265C227.696 58.4265 227.638 58.3116 227.517 58.1723C227.397 58.0331 227.146 57.6083 226.961 57.2296C226.776 56.85 226.573 56.5401 226.51 56.5401C226.448 56.5401 226.325 56.2755 226.238 55.9526C226.151 55.6287 225.986 55.3284 225.87 55.284C225.755 55.2396 225.66 55.0881 225.66 54.948C225.66 54.8078 225.529 54.5275 225.37 54.3247C225.21 54.121 225.079 53.8616 225.079 53.7467C225.079 53.6318 224.951 53.422 224.793 53.2792C224.635 53.1365 224.538 52.9685 224.576 52.9058C224.615 52.844 224.494 52.6072 224.309 52.3809C224.124 52.1554 223.887 51.7576 223.783 51.4982C223.679 51.2388 223.532 51.0272 223.458 51.0272C223.383 51.0272 223.362 50.9619 223.411 50.8818C223.46 50.8018 223.432 50.7365 223.347 50.7365C223.263 50.7365 223.194 50.6146 223.194 50.4657C223.194 50.3178 223.063 50.0296 222.903 49.8268C222.744 49.624 222.613 49.395 222.613 49.3193C222.613 49.2427 222.478 49.0076 222.313 48.7978C222.148 48.5872 222.05 48.4157 222.096 48.4157C222.232 48.4157 221.269 46.7583 221.059 46.6294C220.952 46.5641 220.903 46.4527 220.947 46.3804C220.991 46.3091 220.873 46.0026 220.684 45.7006C220.495 45.3985 220.127 44.7265 219.866 44.2077C219.604 43.6888 219.348 43.2318 219.297 43.1909C219.12 43.0508 218.406 41.5953 218.406 41.3742C218.406 41.2523 218.308 41.1147 218.188 41.0686C218.068 41.0225 217.971 40.918 217.971 40.8362C217.971 40.7544 217.824 40.4514 217.645 40.1624C217.466 39.8743 217.314 39.6053 217.308 39.5652C217.271 39.325 216.887 38.6947 216.778 38.6947C216.706 38.6947 216.688 38.6294 216.737 38.5494C216.787 38.4701 216.754 38.4049 216.665 38.4049C216.575 38.4049 216.538 38.3474 216.581 38.2786C216.623 38.209 216.525 37.9975 216.361 37.8086C216.198 37.6197 216.027 37.2854 215.983 37.0643C215.939 36.844 215.846 36.6638 215.776 36.6638C215.707 36.6638 215.66 36.6142 215.672 36.555C215.715 36.3522 215.474 35.9396 215.357 36.0118C215.14 36.1459 215.314 35.3816 215.555 35.1404C215.687 35.009 215.795 34.8375 215.795 34.7583C215.795 34.68 215.86 34.6556 215.939 34.7052C216.019 34.7539 216.084 34.7087 216.084 34.6033C216.084 34.4406 216.799 33.5788 217.785 32.5507C217.927 32.4027 218.027 32.2234 218.007 32.1511C217.986 32.0797 218.068 32.0205 218.188 32.0205C218.308 32.0205 218.406 31.9526 218.406 31.8691C218.406 31.7855 218.554 31.5731 218.736 31.3973C218.918 31.2214 219.358 30.7183 219.714 30.2795C220.069 29.8408 220.443 29.4299 220.544 29.3655C220.645 29.302 220.727 29.1705 220.727 29.0739C220.727 28.9781 220.857 28.8171 221.018 28.7178C221.177 28.6177 221.307 28.4393 221.307 28.32C221.307 28.2008 221.405 28.1033 221.525 28.1033C221.644 28.1033 221.743 28.0075 221.743 27.8909C221.743 27.7742 221.873 27.6088 222.033 27.5235C222.193 27.4382 222.323 27.3076 222.323 27.2345C222.323 27.0238 223.02 26.3831 223.136 26.4867C223.193 26.5381 223.198 26.5068 223.147 26.4171C223.096 26.3266 223.28 26.0332 223.557 25.7642C223.835 25.4944 224.062 25.2236 224.063 25.1609C224.064 25.0983 224.262 24.8537 224.504 24.6169C224.747 24.3801 224.91 24.186 224.866 24.186C224.823 24.186 225.082 23.8961 225.441 23.5418C225.801 23.1875 226.095 22.8437 226.095 22.7784C226.095 22.7131 226.226 22.579 226.385 22.4789C226.545 22.3797 226.676 22.2282 226.676 22.1429C226.676 22.0567 226.92 21.7398 227.22 21.4369C228.095 20.5516 228.899 19.5914 228.865 19.4722C228.848 19.4112 228.981 19.2885 229.161 19.1988C229.341 19.1083 229.613 18.8228 229.764 18.5642L230.04 18.0924H221.04H212.042L211.714 18.5642C211.534 18.8236 211.237 19.1901 211.054 19.3799C210.871 19.5688 210.757 19.7829 210.802 19.8552C210.847 19.9266 210.796 19.9684 210.691 19.9457C210.585 19.924 210.516 19.9901 210.537 20.092C210.557 20.1938 210.476 20.3148 210.355 20.361C210.235 20.4071 210.136 20.529 210.136 20.6317C210.136 20.7344 210.038 20.8563 209.919 20.9016C209.799 20.9477 209.701 21.0696 209.701 21.1723C209.701 21.2759 209.57 21.4413 209.41 21.5414C209.251 21.6406 209.12 21.8304 209.12 21.9627C209.12 22.095 209.079 22.162 209.029 22.1116C208.916 21.9984 208.395 22.6391 208.395 22.8915C208.395 22.9916 208.353 23.0326 208.303 22.9821C208.225 22.9037 207.379 23.9266 207.379 24.0998C207.379 24.1712 206.958 24.6787 206.184 25.5414C205.886 25.873 205.641 26.2282 205.64 26.3309C205.639 26.4328 205.541 26.5538 205.422 26.5999C205.302 26.646 205.233 26.7287 205.268 26.7853C205.302 26.841 205.172 27.0064 204.977 27.1527C204.782 27.2989 204.622 27.4782 204.622 27.5505C204.622 27.6227 204.476 27.8386 204.296 28.031C203.762 28.6021 203.607 28.8092 203.607 28.952C203.607 29.0269 203.5 29.1296 203.369 29.1792C203.237 29.2297 203.171 29.3115 203.221 29.362C203.271 29.4116 203.16 29.5901 202.975 29.7572C202.789 29.9252 202.451 30.3231 202.224 30.6425C201.996 30.962 201.738 31.2885 201.651 31.3677C201.562 31.4478 201.379 31.6741 201.243 31.8717C201.009 32.2103 200.996 31.3651 200.996 16.529V0.827637H192.435H183.875L183.911 32.347ZM281.808 7.35645V13.8853H290.223H298.637V7.35645V0.827637H290.223H281.808V7.35645ZM302.3 32.347L302.337 63.8672L310.789 63.9046L319.24 63.9421V58.148V52.353L319.726 51.8377C319.993 51.5539 320.18 51.2901 320.14 51.2509C320.1 51.2109 320.176 51.1378 320.307 51.0873C320.438 51.0368 320.545 50.928 320.545 50.8453C320.545 50.7617 320.771 50.4588 321.046 50.1715C321.895 49.2827 322.144 48.9955 322.063 48.9955C322.022 48.9955 322.218 48.7639 322.501 48.481C323.018 47.9639 323.299 47.9308 323.305 48.3878C323.307 48.5228 323.436 48.7961 323.592 48.9955C323.748 49.1957 323.878 49.4768 323.879 49.6213C323.881 49.765 323.947 49.8433 324.027 49.7937C324.107 49.7441 324.173 49.8338 324.173 49.9922C324.173 50.1506 324.27 50.3787 324.39 50.4988C324.51 50.6181 324.608 50.8209 324.608 50.9489C324.608 51.0768 324.705 51.2187 324.825 51.264C324.944 51.3101 325.008 51.4015 324.967 51.4668C324.927 51.533 325.078 51.9012 325.303 52.286C325.773 53.0868 325.969 53.5186 325.936 53.6744C325.924 53.7345 325.969 53.7832 326.036 53.7832C326.169 53.7832 326.56 54.5162 326.519 54.6903C326.505 54.7504 326.556 54.7991 326.633 54.7991C326.709 54.7991 326.85 55.0603 326.946 55.3798C327.042 55.6984 327.175 55.9595 327.242 55.9595C327.309 55.9595 327.364 56.0614 327.364 56.1858C327.364 56.3103 327.428 56.3721 327.508 56.3234C327.59 56.2729 327.615 56.3312 327.565 56.4601C327.517 56.5837 327.54 56.6855 327.615 56.6855C327.69 56.6855 327.752 56.7665 327.754 56.8666C327.756 56.9667 327.947 57.3741 328.18 57.7737C328.413 58.1723 328.764 58.8252 328.961 59.2239C329.158 59.6235 329.357 59.9821 329.404 60.0222C329.508 60.111 329.722 60.6707 329.659 60.6864C329.633 60.6925 329.778 60.9214 329.979 61.1939C330.18 61.4672 330.597 62.1967 330.906 62.8148L331.467 63.9395H340.152C344.928 63.9395 348.837 63.9099 348.837 63.8742C348.837 63.6888 348.483 63.069 348.378 63.069C348.311 63.069 348.256 62.9506 348.256 62.8061C348.256 62.6616 348.11 62.3856 347.93 62.1932C347.75 62 347.611 61.8085 347.62 61.7667C347.659 61.5795 347.344 60.8927 347.219 60.8927C347.141 60.8927 347.119 60.8274 347.168 60.7473C347.218 60.6681 347.189 60.6028 347.104 60.6028C347.02 60.6028 346.95 60.5044 346.95 60.3852C346.95 60.265 346.882 60.1676 346.797 60.1676C346.713 60.1676 346.684 60.1023 346.733 60.0222C346.782 59.9421 346.755 59.8768 346.674 59.8768C346.592 59.8768 346.562 59.7793 346.608 59.6592C346.654 59.5399 346.631 59.4415 346.558 59.4415C346.484 59.4415 346.232 59.0341 345.998 58.5354C345.764 58.0365 345.491 57.5421 345.391 57.4368C345.291 57.3314 345.17 57.0868 345.121 56.8927C345.073 56.6986 344.956 56.5401 344.862 56.5401C344.768 56.5401 344.681 56.4009 344.668 56.2311C344.655 56.0614 344.515 55.7837 344.355 55.6148C344.197 55.445 344.063 55.2579 344.059 55.1978C344.04 54.9027 343.61 54.074 343.476 54.074C343.392 54.074 343.324 53.9573 343.324 53.8155C343.324 53.6736 343.233 53.429 343.123 53.2714C343.013 53.1147 342.918 52.9206 342.913 52.8405C342.908 52.7604 342.736 52.4871 342.533 52.232C342.33 51.9769 342.163 51.674 342.163 51.56C342.163 51.4459 342.066 51.2718 341.947 51.1735C341.828 51.0751 341.766 50.9358 341.811 50.8644C341.855 50.7931 341.789 50.6956 341.666 50.6477C341.541 50.6007 341.469 50.5127 341.505 50.4544C341.542 50.3952 341.282 49.8398 340.928 49.2192C340.575 48.5985 340.247 47.9683 340.199 47.8177C340.151 47.6679 340.052 47.5452 339.977 47.5452C339.903 47.5452 339.858 47.4956 339.878 47.4364C339.898 47.3763 339.755 47.0664 339.562 46.7469C339.367 46.4275 339.192 46.0732 339.172 45.96C339.152 45.846 339.03 45.6954 338.904 45.6248C338.778 45.5535 338.704 45.4481 338.741 45.3889C338.777 45.3297 338.649 45.0242 338.457 44.7091C338.264 44.3931 338.009 43.9274 337.888 43.674C337.768 43.4198 337.604 43.1709 337.523 43.1213C337.441 43.0708 337.375 42.9132 337.375 42.7713C337.375 42.6286 337.246 42.3953 337.088 42.2525C336.931 42.1097 336.833 41.9417 336.872 41.8799C336.91 41.8172 336.778 41.5718 336.578 41.3341C336.378 41.0965 336.214 40.8571 336.214 40.8014C336.214 40.5359 335.071 38.4344 334.974 38.5215C334.912 38.5772 334.901 38.5137 334.949 38.3822C334.998 38.2412 334.918 38.0366 334.754 37.8878C334.6 37.7485 334.473 37.5213 334.473 37.3846C334.473 37.2471 334.375 37.053 334.256 36.9537C334.137 36.8545 334.038 36.6908 334.038 36.5907C334.038 36.4906 333.939 36.3261 333.817 36.2251C333.695 36.1241 333.63 36.0083 333.671 35.9674C333.712 35.9256 333.684 35.8186 333.609 35.728C333.518 35.6184 333.617 35.4094 333.908 35.0978C334.147 34.8419 334.302 34.6321 334.251 34.6321C334.2 34.6321 334.439 34.3709 334.782 34.0523C335.124 33.7328 335.36 33.4717 335.308 33.4717C335.256 33.4717 335.373 33.2993 335.569 33.0878C335.764 32.8763 335.925 32.6447 335.925 32.5716C335.925 32.4985 335.985 32.4767 336.059 32.522C336.133 32.5681 336.236 32.4715 336.288 32.3087C336.34 32.145 336.818 31.5783 337.35 31.0482C337.882 30.5189 338.22 30.1324 338.101 30.189C337.981 30.2465 338.029 30.1846 338.21 30.0515C338.389 29.9183 338.536 29.7572 338.536 29.6937C338.536 29.6293 338.781 29.322 339.08 29.0103C339.379 28.6978 339.852 28.1581 340.132 27.8108C340.411 27.4626 340.814 26.9951 341.027 26.7705C341.241 26.5459 341.385 26.3622 341.349 26.3622C341.312 26.3622 341.513 26.1316 341.795 25.8495C342.077 25.5683 342.31 25.2907 342.312 25.2332C342.315 25.1757 342.544 24.9041 342.821 24.6282C343.098 24.3531 343.324 24.0476 343.324 23.9492C343.324 23.8508 343.454 23.729 343.614 23.6785C343.773 23.628 343.904 23.5226 343.904 23.4452C343.904 23.3677 344.161 23.0526 344.475 22.7444C344.789 22.4371 345.012 22.1507 344.97 22.1089C344.928 22.0672 345.063 21.9227 345.269 21.7869C345.476 21.6519 345.645 21.4665 345.645 21.3751C345.645 21.2837 345.782 21.1235 345.949 21.0191C346.116 20.9146 346.224 20.7988 346.187 20.7623C346.15 20.7257 346.499 20.3018 346.964 19.8204C347.428 19.3381 347.848 18.8167 347.897 18.6617C347.947 18.5059 348.048 18.4163 348.122 18.4615C348.196 18.5077 348.256 18.4432 348.256 18.3188C348.256 18.075 330.27 17.9575 330.263 18.2012C330.262 18.2613 330.036 18.5668 329.763 18.8802C329.489 19.1936 329.291 19.4922 329.323 19.5436C329.354 19.594 329.253 19.7272 329.097 19.8395C328.942 19.951 328.815 20.1268 328.815 20.2286C328.815 20.3305 328.71 20.4141 328.582 20.4141C328.435 20.4141 328.38 20.4942 328.432 20.6317C328.483 20.764 328.433 20.8493 328.302 20.8493C328.186 20.8493 328.09 20.9477 328.09 21.0669C328.09 21.1862 328.04 21.2846 327.981 21.2846C327.921 21.2854 327.676 21.5771 327.437 21.9348C327.198 22.2918 326.952 22.5851 326.893 22.5869C326.833 22.5886 326.784 22.6591 326.784 22.7427C326.784 22.8262 326.621 23.0456 326.421 23.2302C326.222 23.4156 326.058 23.608 326.058 23.6584C326.058 23.7098 325.944 23.8717 325.805 24.0197C325.415 24.4315 325.043 24.9068 325.043 24.9921C325.043 25.0347 324.896 25.2271 324.717 25.4195C324.228 25.9409 324.027 26.1951 324.027 26.2909C324.027 26.3379 323.865 26.5276 323.664 26.7122C323.465 26.8976 323.302 27.1231 323.302 27.2136C323.302 27.3041 323.237 27.3781 323.157 27.3781C323.077 27.3781 323.011 27.48 323.011 27.6045C323.011 27.7289 322.951 27.7934 322.877 27.7472C322.803 27.702 322.701 27.796 322.649 27.9561C322.599 28.1172 322.496 28.2486 322.421 28.2486C322.347 28.2486 322.286 28.3183 322.286 28.4036C322.286 28.4889 322.058 28.7988 321.78 29.0922C321.501 29.3864 321.273 29.7128 321.272 29.8173C321.271 29.9209 321.215 29.9722 321.147 29.9305C321.079 29.8878 320.949 30.0149 320.86 30.2116C320.77 30.4092 320.626 30.5703 320.54 30.5703C320.454 30.5703 320.423 30.6356 320.473 30.7148C320.522 30.7949 320.493 30.8602 320.409 30.8602C320.324 30.8602 320.255 30.9577 320.255 31.0778C320.255 31.197 320.206 31.2954 320.147 31.2954C320.087 31.2963 319.907 31.4921 319.747 31.7307C319.588 31.9692 319.408 32.1651 319.348 32.1659C319.288 32.1659 319.24 25.1148 319.24 16.4968V0.827637H310.752H302.264L302.3 32.347ZM157.325 17.3124C156.495 17.383 154.628 17.6267 154.061 17.7381C153.821 17.7851 153.511 17.833 153.371 17.8443C153.232 17.8548 153.118 17.9087 153.118 17.9636C153.118 18.0176 152.971 18.0611 152.792 18.0611C152.205 18.0585 150.432 18.5486 149.273 19.0326C149.034 19.1327 148.772 19.2293 148.692 19.2485C148.613 19.2667 148.417 19.3538 148.257 19.4417C148.098 19.5305 147.876 19.6176 147.764 19.6358C147.652 19.6541 147.522 19.7298 147.474 19.8038C147.364 19.9736 146.5 20.4202 146.151 20.4872C145.814 20.5516 143.542 22.0306 143.542 22.1847C143.542 22.2482 143.444 22.3005 143.325 22.3005C143.205 22.3005 143.107 22.3657 143.107 22.445C143.107 22.525 143.05 22.5738 142.979 22.5538C142.91 22.5338 142.648 22.7296 142.399 22.9882C142.15 23.2467 141.946 23.4217 141.946 23.3764C141.946 23.265 140.43 24.8023 139.586 25.7703C139.208 26.2029 138.93 26.586 138.965 26.6217C139.001 26.6582 138.952 26.7749 138.857 26.8828C138.279 27.5287 137.449 28.791 137.449 29.0216C137.449 29.1418 137.38 29.2628 137.296 29.2906C137.211 29.3194 137.128 29.4386 137.109 29.557C137.09 29.6754 136.882 30.1638 136.647 30.6425C136.412 31.1213 136.216 31.5783 136.211 31.6584C136.206 31.7376 136.121 31.95 136.022 32.1294C135.924 32.3096 135.874 32.4558 135.913 32.4558C135.952 32.4558 135.892 32.717 135.78 33.0364C135.668 33.3559 135.613 33.6171 135.659 33.6171C135.705 33.6171 135.677 33.698 135.597 33.7981C135.462 33.9661 135.374 34.2786 135.2 35.2127C135.163 35.412 135.088 35.7716 135.035 36.011C134.982 36.2503 134.921 36.6421 134.901 36.8815C134.88 37.1209 134.786 38.0671 134.691 38.9846C134.516 40.6743 134.617 44.716 134.835 44.716C134.853 44.716 134.937 45.6188 135.005 46.5659C135.022 46.7852 135.078 46.9646 135.129 46.9646C135.181 46.9646 135.213 47.1117 135.199 47.291C135.186 47.4703 135.256 47.9273 135.355 48.3069C135.455 48.6856 135.513 48.9955 135.484 48.9955C135.455 48.9955 135.528 49.2244 135.644 49.5038C135.761 49.7824 135.815 50.0113 135.764 50.0113C135.714 50.0113 135.755 50.1106 135.856 50.2324C135.957 50.3543 136 50.4936 135.951 50.5415C135.903 50.5902 135.939 50.7678 136.033 50.9376C136.125 51.1064 136.214 51.318 136.229 51.4076C136.244 51.4973 136.356 51.7907 136.478 52.0605C136.599 52.3295 136.782 52.7917 136.882 53.0868C136.983 53.3819 137.113 53.5943 137.169 53.5595C137.226 53.5238 137.317 53.6744 137.372 53.8929C137.426 54.1123 137.559 54.3891 137.667 54.5093C137.775 54.6285 137.867 54.7922 137.871 54.8714C137.875 54.9515 138.125 55.3397 138.426 55.7349C138.726 56.1301 138.956 56.5053 138.936 56.5689C138.916 56.6333 138.998 56.6855 139.117 56.6855C139.237 56.6855 139.334 56.7856 139.334 56.9075C139.334 57.0294 139.433 57.1669 139.552 57.2131C139.672 57.2592 139.77 57.3488 139.77 57.4124C139.77 57.5543 141.642 59.4415 141.782 59.4415C141.837 59.4415 141.983 59.5565 142.107 59.6957C142.728 60.3948 143.54 60.9562 144.017 61.0172C144.078 61.025 144.307 61.1982 144.524 61.4019C144.742 61.6056 145.084 61.8111 145.283 61.8581C145.483 61.9042 145.721 62.0365 145.813 62.1514C145.905 62.2663 146.146 62.3778 146.349 62.3995C146.551 62.4213 146.802 62.5057 146.907 62.5876C147.183 62.8043 148.001 63.0594 148.1 62.9601C148.147 62.914 148.185 62.9558 148.185 63.0533C148.185 63.1508 148.25 63.1908 148.33 63.1412C148.409 63.0925 148.475 63.1134 148.475 63.1891C148.475 63.2648 148.72 63.3719 149.019 63.4267C149.318 63.4816 149.949 63.6522 150.421 63.8054C150.894 63.9586 151.308 64.0561 151.343 64.0213C151.378 63.9865 151.565 64.0178 151.758 64.0918C152.158 64.2433 153.442 64.4592 154.931 64.6246C156.231 64.7691 163.998 64.7525 164.371 64.6054C164.525 64.5436 164.946 64.4679 165.305 64.4365C166.109 64.3669 166.843 64.2642 167.384 64.1458C167.814 64.0518 168.312 63.9691 168.951 63.8837C169.161 63.8559 169.422 63.7758 169.531 63.707C169.64 63.6374 169.762 63.5773 169.802 63.5721C170.666 63.4607 171.404 63.2883 171.723 63.1238C171.944 63.0098 172.125 62.9671 172.126 63.0289C172.127 63.0907 172.186 63.0498 172.257 62.9384C172.328 62.827 172.539 62.7225 172.726 62.7068C173.102 62.6746 173.35 62.5902 174.263 62.1828C174.6 62.0322 174.931 61.9086 174.996 61.9086C175.063 61.9086 175.391 61.7754 175.726 61.6135C176.061 61.4516 176.497 61.2574 176.696 61.1817C176.894 61.1068 177.057 60.9797 177.057 60.9005C177.057 60.8213 177.141 60.7891 177.243 60.8283C177.346 60.8674 177.558 60.7839 177.715 60.642C177.872 60.501 178.065 60.3852 178.145 60.3843C178.33 60.3843 179.807 59.4006 179.81 59.2753C179.815 59.1308 178.629 57.2052 178.474 57.1042C178.399 57.0555 178.337 56.9754 178.337 56.9267C178.337 56.6638 178.168 56.2503 178.062 56.2503C177.995 56.2503 177.728 55.8255 177.47 55.3066C177.212 54.7887 176.948 54.3639 176.884 54.3639C176.819 54.3639 176.766 54.2977 176.766 54.2159C176.766 54.1349 176.44 53.5421 176.041 52.8988C175.642 52.2555 175.316 51.6697 175.316 51.5957C175.316 51.5225 175.251 51.4625 175.171 51.4625C175.09 51.4625 175.025 51.3441 175.025 51.1996C175.025 51.0551 174.911 50.8096 174.772 50.6555C174.632 50.5006 174.432 50.2107 174.328 50.0113C173.912 49.2131 173.284 48.8797 173.284 49.4551C173.284 49.5308 173.231 49.5604 173.166 49.5195C173.1 49.4795 172.823 49.5857 172.549 49.7563C172.275 49.9269 171.955 50.0827 171.837 50.1036C171.718 50.1236 171.598 50.2098 171.57 50.2934C171.542 50.3778 171.422 50.4466 171.304 50.4466C171.186 50.4466 170.947 50.5249 170.772 50.6207C170.598 50.7164 170.324 50.8157 170.165 50.8409C170.006 50.8662 169.793 50.9967 169.693 51.1299C169.594 51.2631 169.512 51.3302 169.512 51.2771C169.512 51.2248 169.202 51.3162 168.823 51.4808C168.444 51.6444 168.036 51.8002 167.917 51.8272C167.797 51.8533 167.242 52.0231 166.683 52.2033C166.124 52.3835 165.609 52.5158 165.537 52.4975C165.465 52.4784 165.303 52.5088 165.175 52.5654C164.822 52.7195 164.533 52.7891 164.253 52.7874C164.113 52.7865 163.999 52.8361 163.999 52.8979C163.999 53.1722 157.264 53.2 157.035 52.9267C156.947 52.8222 155.582 52.3173 155.337 52.2982C155.24 52.2903 155.128 52.1981 155.088 52.0936C155.044 51.9796 154.91 51.9404 154.755 51.9952C154.613 52.0466 154.547 52.0335 154.608 51.9656C154.669 51.8986 154.441 51.6697 154.1 51.4572C153.76 51.2448 153.386 50.8818 153.27 50.6503C153.155 50.4187 152.906 50.0166 152.718 49.7571C152.531 49.4977 152.415 49.2862 152.461 49.2862C152.506 49.2862 152.42 49.0407 152.27 48.7421C152.12 48.4427 151.91 47.7567 151.805 47.2187C151.7 46.6799 151.556 46.2394 151.487 46.2394C151.417 46.2394 151.4 46.1741 151.449 46.0941C151.508 45.9992 156.583 45.9487 166.201 45.9487H180.863L180.782 42.7931C180.737 41.0582 180.664 39.4094 180.618 39.13C180.572 38.8506 180.505 38.263 180.468 37.8242C180.31 35.937 180.254 35.5217 180.028 34.5598C179.897 34.001 179.791 33.4316 179.792 33.2932C179.794 33.1548 179.734 33.0042 179.659 32.9581C179.584 32.9119 179.523 32.7283 179.523 32.5489C179.523 32.3705 179.441 32.1363 179.342 32.0284C179.194 31.8699 179.201 31.8552 179.378 31.9518C179.562 32.0528 179.561 32.0284 179.369 31.7916C179.244 31.6384 179.148 31.4147 179.155 31.2954C179.162 31.1753 179.084 30.9916 178.983 30.8863C178.881 30.7809 178.798 30.5764 178.798 30.4319C178.798 30.1812 178.571 29.5413 178.151 28.6116C177.732 27.6819 177.587 27.3015 177.611 27.1971C177.625 27.137 177.571 27.0882 177.492 27.0882C177.412 27.0882 177.347 26.9899 177.347 26.8706C177.347 26.7505 177.292 26.653 177.225 26.653C177.157 26.653 176.951 26.3588 176.766 26.0001C176.582 25.6406 176.375 25.3472 176.308 25.3472C176.241 25.3472 176.186 25.2584 176.186 25.1505C176.186 25.0426 176.03 24.7858 175.838 24.5794C175.648 24.3731 175.522 24.1738 175.56 24.1364C175.597 24.0981 175.492 24.0241 175.325 23.9718C175.158 23.9187 174.929 23.6941 174.814 23.4722C174.591 23.0404 173.657 22.1551 173.424 22.1551C173.348 22.1551 173.284 22.0567 173.284 21.9375C173.284 21.8182 173.229 21.7198 173.162 21.7198C173.094 21.7198 172.85 21.557 172.618 21.3577C172.386 21.1575 172.158 20.9947 172.11 20.9947C172.063 20.9947 171.834 20.8302 171.602 20.63C171.259 20.334 169.201 19.2215 168.932 19.1875C168.892 19.1823 168.606 19.0578 168.297 18.9107C167.987 18.7627 167.661 18.6269 167.572 18.6095C167.482 18.5912 167.115 18.4937 166.756 18.3919C165.957 18.1655 165.589 18.0759 165.303 18.0367C165.182 18.0202 165.018 17.9688 164.94 17.9227C164.861 17.8774 164.497 17.7964 164.131 17.7433C163.764 17.6902 163.307 17.618 163.115 17.584C162.085 17.3995 158.361 17.2254 157.325 17.3124ZM262.663 17.3786C261.095 17.5701 261.003 17.584 260.843 17.6694C260.763 17.712 260.469 17.7651 260.19 17.7886C259.911 17.8121 259.551 17.9044 259.392 17.9923C259.233 18.0811 259.026 18.1386 258.932 18.1194C258.838 18.1003 258.72 18.1516 258.669 18.2343C258.618 18.3161 258.415 18.3832 258.218 18.3832C258.02 18.3832 257.697 18.4885 257.501 18.6173C257.305 18.7462 257.144 18.8071 257.144 18.7523C257.144 18.6983 256.931 18.8045 256.672 18.989C256.412 19.1736 256.183 19.305 256.16 19.2807C256.086 19.198 254.967 19.7429 254.967 19.8613C254.967 19.9257 254.905 19.9788 254.828 19.9788C254.631 19.9788 253.673 20.6465 253.373 20.993C253.233 21.1531 253.048 21.2846 252.96 21.2846C252.873 21.2846 252.728 21.4204 252.639 21.5875C252.55 21.7538 252.445 21.8565 252.404 21.8165C252.282 21.6946 251.784 22.1969 251.878 22.3483C251.926 22.4267 251.901 22.4502 251.823 22.4023C251.745 22.3536 251.458 22.5529 251.184 22.8437C250.911 23.1353 250.785 23.3137 250.905 23.2415C251.024 23.1684 250.845 23.3886 250.506 23.7316C250.167 24.0737 249.889 24.4471 249.889 24.5603C249.889 24.6735 249.825 24.7666 249.747 24.7666C249.659 24.7666 249.589 23.5009 249.565 21.4656L249.527 18.1655H241.039H232.552V41.0164V63.8672H241.039H249.527L249.563 49.2227C249.593 37.6022 249.562 34.5537 249.418 34.4623C249.273 34.37 249.273 34.3465 249.418 34.3448C249.517 34.3431 249.725 34.2282 249.878 34.088C250.323 33.685 250.516 33.5544 250.941 33.3646C251.161 33.2671 251.34 33.1322 251.34 33.0643C251.34 32.9964 251.666 32.7883 252.065 32.6012C252.465 32.414 252.791 32.1964 252.791 32.1172C252.791 32.0371 252.832 32.0136 252.883 32.0641C252.933 32.1146 253.112 32.0797 253.281 31.9866C253.45 31.8935 253.716 31.796 253.871 31.7707C254.025 31.7446 254.337 31.6323 254.563 31.52C254.788 31.4068 254.934 31.3764 254.888 31.4504C254.781 31.6245 254.918 31.6227 255.249 31.4443C255.394 31.3668 256.059 31.305 256.727 31.3067C258.321 31.3111 258.594 31.3355 258.594 31.4713C258.594 31.5339 258.644 31.5757 258.703 31.5627C258.763 31.5505 258.975 31.6114 259.175 31.6985C259.374 31.7864 259.488 31.8612 259.429 31.8665C259.369 31.8717 259.434 31.9962 259.573 32.1433C259.713 32.2895 259.871 32.387 259.924 32.3592C259.978 32.3313 260.064 32.5046 260.117 32.7448C260.17 32.9851 260.266 33.1818 260.331 33.1818C260.624 33.1818 260.673 35.1709 260.722 49.1043L260.775 63.9395H269.261H277.748L277.737 46.2029C277.731 35.3067 277.673 28.1581 277.585 27.668C277.507 27.2293 277.416 26.6913 277.384 26.4719C277.351 26.2526 277.193 25.7773 277.033 25.4151C276.873 25.053 276.805 24.7953 276.882 24.8432C277.062 24.9546 276.076 22.7897 275.829 22.532C275.726 22.4241 275.544 22.1847 275.424 22.0001C275.304 21.8156 275.013 21.4813 274.775 21.2567C274.538 21.033 274.396 20.8493 274.461 20.8493C274.525 20.8493 274.233 20.5551 273.812 20.1964C273.392 19.8369 272.999 19.5436 272.941 19.5436C272.882 19.5436 272.746 19.4617 272.64 19.3625C272.373 19.1127 271.331 18.5921 271.188 18.6365C271.124 18.6565 271.072 18.6052 271.072 18.5216C271.072 18.438 270.99 18.3867 270.89 18.4067C270.791 18.4276 270.571 18.3675 270.402 18.2735C270.233 18.1803 269.894 18.068 269.648 18.0254C269.402 17.9819 269.04 17.8852 268.845 17.8112C268.529 17.6911 268.159 17.618 266.864 17.4204C265.953 17.282 263.645 17.2585 262.663 17.3786ZM281.772 41.0164L281.735 63.9395H290.186H298.637V41.0164V18.0924H290.224H281.809L281.772 41.0164ZM160.735 29.349C161.134 29.4012 161.492 29.4882 161.532 29.5431C161.572 29.5988 161.834 29.732 162.113 29.8408C162.392 29.9487 162.724 30.1246 162.849 30.2308C162.976 30.3379 163.159 30.4249 163.258 30.4249C163.355 30.4249 163.401 30.4806 163.36 30.5485C163.318 30.6155 163.446 30.7583 163.644 30.8645C163.99 31.0491 165.1 33.0721 165.231 33.7581C165.262 33.92 165.336 34.1298 165.394 34.2238C165.451 34.3169 165.513 34.5946 165.53 34.8393C165.547 35.0847 165.61 35.4974 165.669 35.7568L165.776 36.2286H158.712H151.648L151.754 35.9021C151.812 35.7219 151.873 35.4773 151.889 35.3581C151.926 35.0691 152.039 34.7566 152.548 33.5439C152.782 32.9859 152.974 32.4767 152.973 32.414C152.973 32.2852 153.146 32.0658 153.74 31.4417C153.962 31.2075 154.142 30.9812 154.139 30.9385C154.136 30.895 154.164 30.8575 154.2 30.8549C154.238 30.8515 154.46 30.6556 154.697 30.4197C154.933 30.1829 155.262 29.9897 155.428 29.9897C155.594 29.9897 155.73 29.9296 155.73 29.8556C155.73 29.7067 156.514 29.4203 157.224 29.3089C157.479 29.2697 157.72 29.2045 157.76 29.1635C157.837 29.0869 159.518 29.1914 160.735 29.349Z" fill="white"/>
</svg>
