<svg width="437" height="70" viewBox="0 0 437 70" fill="none" xmlns="http://www.w3.org/2000/svg">
<path d="M18.937 46.2133C24.9243 46.2133 26.1205 42.9383 26.1205 26.3355C26.1205 17.8753 25.4812 13.404 23.9653 11.6469C23.0083 10.3721 21.4119 9.97208 17.5799 10.0525V46.2133H18.937ZM4.24835 10.0505H0.816417V1.51383H22.2101C27.2384 1.51383 31.4685 2.86896 34.1022 5.26543C38.4951 9.17587 40.7288 16.9987 40.7288 28.0143C40.7288 41.3459 37.6146 49.6453 31.4685 52.6006C28.7543 53.8773 23.726 54.7579 18.8566 54.7579H0.814453V46.2153H4.24835V10.0525V10.0505ZM54.937 42.2225C54.937 45.9741 55.494 47.0899 57.2511 47.0899C59.326 47.0899 59.8045 45.9721 59.8045 41.2635C59.8045 39.2671 59.726 38.6297 59.4848 37.9904C59.1651 37.2726 58.2101 36.7137 57.41 36.7137C55.494 36.7137 54.935 37.9904 54.935 42.2205L54.937 42.2225ZM73.6146 54.7539H59.8849V51.0827C57.0119 54.2754 55.0154 55.3128 51.4227 55.3128C48.3104 55.3128 46.3944 54.5147 44.6373 52.279C42.6428 49.8845 41.6839 46.6899 41.6839 42.5402C41.6839 34.3996 45.5963 29.689 52.4601 29.689C55.2547 29.689 57.0903 30.4068 59.4848 32.4032V29.8479C59.4848 26.0178 57.6492 24.3411 53.4995 24.3411C50.3853 24.3411 47.1122 25.1393 43.5999 26.6552V17.3968C48.5497 15.8789 51.9012 15.32 55.8136 15.32C60.5242 15.32 64.6739 16.4378 67.4685 18.5147C69.6237 20.109 70.5807 21.8681 71.1396 25.457C71.3789 27.0553 71.5397 28.732 71.5397 29.9283V46.2133H73.6146V54.7539ZM88.5386 34.3192C88.5386 41.5831 89.0975 43.4972 91.4135 43.4972C93.5688 43.4972 94.2866 41.0242 94.2866 33.1229C94.2866 27.5338 93.6472 25.6982 91.6528 25.6982C89.3387 25.6982 88.5386 27.8534 88.5386 34.3192ZM109.373 24.3411H107.218V50.365C107.218 56.6699 106.5 60.1823 104.665 62.818C102.19 66.5676 96.1222 69.2014 89.9761 69.2014C85.9852 69.2014 81.5139 68.6425 78.082 67.7659V57.2288C80.7961 58.5036 82.871 58.9036 86.3833 58.9036C91.7332 58.9036 94.0473 56.9896 94.0473 52.5183C94.0473 51.8005 94.0473 51.0827 93.9689 49.8061C91.5724 52.8379 88.9386 54.195 85.2674 54.195C81.7551 54.195 78.5605 52.5183 77.0445 49.8061C75.2089 46.6918 74.4108 41.9813 74.4108 34.7173C74.4108 21.1465 77.7643 15.322 85.5851 15.322C89.576 15.322 91.8921 16.5967 93.9669 20.111V15.8789H109.373V24.3411ZM128.769 29.689L128.849 27.8534C128.849 24.9 127.97 23.3821 126.215 23.3821C125.256 23.3821 124.539 23.941 124.058 24.8196C123.66 25.7786 123.58 26.3355 123.58 29.689V31.2854H128.769V29.689ZM123.58 37.2726C123.58 41.1046 123.66 42.6206 124.138 44.0581C124.778 46.0525 126.215 47.1703 128.131 47.1703C130.604 47.1703 131.883 45.4936 132.042 41.9028H140.822C140.502 50.2846 135.076 55.3128 126.215 55.3128C121.505 55.3128 116.955 53.6361 114.241 50.7631C111.207 47.5704 109.769 42.7814 109.769 35.5155C109.769 27.3749 111.368 22.2663 114.8 19.0716C117.514 16.5987 121.346 15.32 125.896 15.32C130.524 15.32 134.676 16.8379 136.831 19.3128C139.465 22.3447 140.982 27.773 140.982 34.1584C140.982 34.7173 140.904 35.9155 140.822 37.2726H123.58ZM156.93 19.3913C159.964 16.1986 161.88 15.32 165.71 15.32C172.176 15.32 175.051 18.5127 175.051 25.5374V46.2133H177.126V54.7539H162.039V30.8069C162.039 28.4928 162.039 28.4124 161.8 27.5338C161.56 26.5748 160.603 25.9374 159.564 25.9374C157.968 25.9374 156.93 27.2141 156.93 29.1301V46.2113H159.085V54.7539H141.763V46.2133H143.92V24.4215H141.763V15.8789H156.93V19.3913ZM204.744 26.816H197.88V25.857C197.88 23.3037 196.201 21.5465 193.887 21.5465C191.971 21.5465 190.614 22.7428 190.614 24.4215C190.614 26.2571 191.412 26.8945 196.521 28.9713C203.865 31.9247 206.101 34.8781 206.101 42.0617C206.101 50.4434 201.471 55.3128 193.489 55.3128C190.375 55.3128 188.38 54.6735 185.905 52.7575L184.627 54.7539H178.881V41.9812H185.905C185.984 44.4562 186.145 45.2563 186.704 46.0525C187.502 47.1703 188.939 47.8097 190.294 47.8097C192.452 47.8097 193.968 46.3722 193.968 44.3777C193.968 43.1795 193.409 42.1421 192.45 41.5831C191.812 41.1831 191.812 41.1831 186.943 38.9494C182.791 37.0334 182.313 36.7137 180.875 35.1958C179.12 33.3602 178.322 30.9657 178.322 27.773C178.322 19.7109 182.793 15.32 191.014 15.32C194.285 15.32 196.042 15.8789 198.437 17.5557L199.157 15.8789H204.744V26.816ZM233.445 6.38129C233.445 10.2917 230.411 12.6862 225.541 12.6862C220.672 12.6862 217.56 10.2917 217.56 6.45974C217.56 2.54929 220.593 0.154785 225.622 0.154785C230.411 0.154785 233.445 2.62774 233.445 6.38129ZM232.646 46.2113H234.802V54.7539H217.479V46.2133H219.636V24.3411H217.479V15.8789H232.646V46.2133V46.2113ZM251.787 19.3913C254.821 16.1986 256.737 15.32 260.569 15.32C267.034 15.32 269.907 18.5127 269.907 25.5374V46.2133H271.982V54.7539H256.895V30.8069C256.895 28.4928 256.895 28.4124 256.656 27.5338C256.417 26.5748 255.46 25.9374 254.421 25.9374C252.824 25.9374 251.787 27.2141 251.787 29.1301V46.2113H253.944V54.7539H236.62V46.2133H238.777V24.4215H236.62V15.8789H251.787V19.3913ZM286.653 34.7173C286.653 42.3009 287.371 44.617 289.767 44.617C290.644 44.617 291.523 44.0581 292.003 43.1795C292.56 42.0617 292.641 41.0223 292.641 34.2368C292.641 27.773 291.842 25.6178 289.528 25.6178C287.293 25.6178 286.653 27.773 286.653 34.7173ZM305.252 46.2133H307.41V54.7539H292.88V49.8845C290.007 54.0362 287.851 55.3128 283.7 55.3128C275.957 55.3128 272.924 49.3256 272.924 33.9995C272.924 20.9876 276.197 15.32 283.78 15.32C287.612 15.32 290.085 16.5987 292.242 19.7129V10.0525H289.128V1.50991H305.252V46.2113V46.2133ZM327.44 52.1202C324.728 54.4343 322.334 55.3128 318.66 55.3128C315.15 55.3128 312.434 54.0342 310.918 51.6417C310.12 50.2826 309.641 48.0489 309.641 45.0955V24.4215H307.484V15.8789H322.651V39.826C322.651 43.2579 323.371 44.6954 325.046 44.6954C326.721 44.6954 327.44 43.4991 327.44 40.9438V24.4215H325.287V15.8789H340.452V46.2133H342.609V54.7539H327.44V52.1202ZM370.385 26.816H363.521V25.857C363.521 23.3037 361.844 21.5465 359.528 21.5465C357.612 21.5465 356.255 22.7428 356.255 24.4215C356.255 26.2571 357.053 26.8945 362.164 28.9713C369.506 31.9247 371.742 34.8781 371.742 42.0617C371.742 50.4434 367.111 55.3128 359.13 55.3128C356.016 55.3128 354.021 54.6735 351.546 52.7575L350.268 54.7539H344.521V41.9812H351.546C351.625 44.4562 351.785 45.2563 352.344 46.0525C353.143 47.1703 354.58 47.8097 355.937 47.8097C358.092 47.8097 359.608 46.3722 359.608 44.3777C359.608 43.1795 359.049 42.1421 358.092 41.5831C357.453 41.1831 357.453 41.1831 352.584 38.9494C348.432 37.0334 347.955 36.7137 346.516 35.1958C344.761 33.3602 343.963 30.9657 343.963 27.773C343.963 19.7109 348.434 15.32 356.655 15.32C359.928 15.32 361.683 15.8789 364.078 17.5557L364.797 15.8789H370.385V26.816ZM387.383 15.8789H392.014V24.4215H387.385V40.5457C387.385 44.2169 387.862 45.0955 389.778 45.0955C390.417 45.0955 390.896 45.0151 392.014 44.6954V53.6381C388.901 54.9128 386.985 55.3128 383.951 55.3128C379.641 55.3128 377.166 54.1166 375.489 51.1612C374.613 49.5648 374.371 48.2882 374.371 45.4151V24.4215H371.979V15.8789H374.371V8.37574L387.383 4.8634V15.8789ZM408.936 15.8789V20.9092C411.011 16.9968 413.643 15.1612 417.237 15.0808V28.5732C415.48 28.1731 414.762 28.0123 413.725 28.0123C411.011 28.0123 409.332 29.9283 409.332 33.0425V46.2133H412.368V54.7539H394.008V46.2133H396.083V24.4215H394.008V15.8789H408.934H408.936ZM434.875 6.38129C434.875 10.2917 431.844 12.6862 426.972 12.6862C422.101 12.6862 418.991 10.2917 418.991 6.45974C418.991 2.54929 422.024 0.154785 427.053 0.154785C431.844 0.154785 434.875 2.62774 434.875 6.38129ZM434.077 46.2113H436.234V54.7539H418.912V46.2133H421.067V24.3411H418.91V15.8789H434.077V46.2133V46.2113Z" fill="#FEFEFE"/>
</svg>
