<svg xmlns="http://www.w3.org/2000/svg" viewBox="0 0 146 64"><path d="M17.06 42.91V9.84L0 0v33.08l17.06 9.83V64l17.07-9.83v-21.1l-17.07 9.84Z"/> <g><path d="M53.08 13.27h-5.3V47.3h5.3V13.27Z"/> <path d="M96.04 41.04H93.5L87.22 23.8h-5.64l8.5 23.3h9.39l8.5-23.3h-5.65l-6.28 17.24Z"/> <path d="m133.58 41.78 6.76-17.98H146l-12.24 32.58h-5.66l3.49-9.29h-4.12l-9.03-23.29h5.68l6.97 17.98h2.5Z"/> <path d="M73.54 37.27a5.72 5.72 0 0 1-9.8 4.04 5.72 5.72 0 0 1-1.67-4.04V23.79h-5.3v13.48a11 11 0 0 0 11.04 10.82 11.05 11.05 0 0 0 11.03-10.82V23.79h-5.3v13.48Z"/> <path d="M110.3 47.3V13.26h5.3V47.3h-5.3Z"/></g></svg>